<svg width="24" height="24" viewBox="0 0 24 24" fill="none" xmlns="http://www.w3.org/2000/svg" aria-hidden="true" focusable="false">
<path fill-rule="evenodd" clip-rule="evenodd" d="M20.268 8.13763C20.3714 8.24101 20.5096 8.29711 20.6529 8.29711C20.7962 8.29711 20.9344 8.24101 21.0378 8.13763C21.8466 7.3289 21.8466 6.01327 21.0378 5.20454C20.8515 5.01817 20.7491 4.77125 20.7491 4.50786C20.7491 4.24447 20.8515 3.99755 21.0378 3.81118C21.2505 3.59854 21.2505 3.25396 21.0378 3.04132C20.8252 2.82868 20.4806 2.82868 20.268 3.04132C19.4592 3.85004 19.4592 5.16568 20.268 5.9744C20.4543 6.16078 20.5567 6.40769 20.5567 6.67109C20.5567 6.93448 20.4543 7.18139 20.268 7.36777C20.0553 7.58041 20.0553 7.92499 20.268 8.13763ZM18.5407 8.49956C18.3975 8.49956 18.2592 8.44346 18.1558 8.34008C17.9431 8.12741 17.9431 7.78236 18.1558 7.57022C18.3422 7.38384 18.4445 7.13693 18.4445 6.87354C18.4445 6.61014 18.3422 6.36323 18.1558 6.17688C17.3471 5.36851 17.3471 4.05288 18.1558 3.24377C18.3684 3.03113 18.713 3.03113 18.9255 3.24361C19.1383 3.45591 19.1383 3.80096 18.9257 4.01358C18.5419 4.39773 18.5419 5.02319 18.9257 5.40699C19.3172 5.79857 19.5333 6.31999 19.5333 6.87354C19.5333 7.42745 19.3172 7.9489 18.9257 8.34008C18.8223 8.44346 18.684 8.49956 18.5407 8.49956ZM1.72468 14.3192H22.2753C22.6756 14.3192 23 13.9948 23 13.5945V10.3497C23 9.94946 22.6756 9.62501 22.2753 9.62501H1.72468C1.32445 9.62501 1 9.94946 1 10.3497V13.5945C1 13.9948 1.32445 14.3192 1.72468 14.3192ZM21.9112 13.2304H17.5919V10.7138H21.9112V13.2304Z" fill="white"></path>
</svg>