<svg xmlns="http://www.w3.org/2000/svg" xmlns:xlink="http://www.w3.org/1999/xlink" width="500" zoomAndPan="magnify" viewBox="0 0 375 374.999991" height="500" preserveAspectRatio="xMidYMid meet" version="1.0"><defs><clipPath id="21156effa8"><path d="M 13.972656 13.972656 L 361.027344 13.972656 L 361.027344 361.027344 L 13.972656 361.027344 Z M 13.972656 13.972656 " clip-rule="nonzero"/></clipPath><clipPath id="ce213f4a12"><path d="M 187.5 13.972656 C 91.664062 13.972656 13.972656 91.664062 13.972656 187.5 C 13.972656 283.335938 91.664062 361.027344 187.5 361.027344 C 283.335938 361.027344 361.027344 283.335938 361.027344 187.5 C 361.027344 91.664062 283.335938 13.972656 187.5 13.972656 Z M 187.5 13.972656 " clip-rule="nonzero"/></clipPath><clipPath id="39ed073f66"><path d="M 73.488281 73.488281 L 301.511719 73.488281 L 301.511719 301.511719 L 73.488281 301.511719 Z M 73.488281 73.488281 " clip-rule="nonzero"/></clipPath><clipPath id="670253c55c"><path d="M 187.5 73.488281 C 124.535156 73.488281 73.488281 124.535156 73.488281 187.5 C 73.488281 250.464844 124.535156 301.511719 187.5 301.511719 C 250.464844 301.511719 301.511719 250.464844 301.511719 187.5 C 301.511719 124.535156 250.464844 73.488281 187.5 73.488281 Z M 187.5 73.488281 " clip-rule="nonzero"/></clipPath><clipPath id="07a2aca490"><path d="M 131.605469 131.605469 L 243.355469 131.605469 L 243.355469 243.355469 L 131.605469 243.355469 Z M 131.605469 131.605469 " clip-rule="nonzero"/></clipPath></defs><g clip-path="url(#21156effa8)"><g clip-path="url(#ce213f4a12)"><path fill="#ecffef" d="M 13.972656 13.972656 L 361.027344 13.972656 L 361.027344 361.027344 L 13.972656 361.027344 Z M 13.972656 13.972656 " fill-opacity="1" fill-rule="nonzero"/></g></g><g clip-path="url(#39ed073f66)"><g clip-path="url(#670253c55c)"><path fill="#d7fedd" d="M 73.488281 73.488281 L 301.511719 73.488281 L 301.511719 301.511719 L 73.488281 301.511719 Z M 73.488281 73.488281 " fill-opacity="1" fill-rule="nonzero"/></g></g><g clip-path="url(#07a2aca490)"><path fill="#39b54a" d="M 243.371094 187.492188 C 243.371094 218.355469 218.355469 243.371094 187.492188 243.371094 C 156.632812 243.371094 131.617188 218.355469 131.617188 187.492188 C 131.617188 156.632812 156.632812 131.617188 187.492188 131.617188 C 218.355469 131.617188 243.371094 156.632812 243.371094 187.492188 " fill-opacity="1" fill-rule="nonzero"/></g><path fill="#ffffff" d="M 185.5625 213.394531 C 183.699219 215.71875 180.320312 216.109375 177.972656 214.28125 L 152.84375 194.671875 C 149.804688 192.300781 149.261719 187.910156 151.636719 184.867188 C 154.011719 181.824219 158.402344 181.285156 161.441406 183.65625 L 178.285156 196.800781 C 179.195312 197.507812 180.503906 197.355469 181.226562 196.457031 L 212.390625 157.558594 C 214.804688 154.546875 219.199219 154.0625 222.210938 156.472656 C 225.222656 158.886719 225.707031 163.285156 223.296875 166.296875 L 185.5625 213.394531 " fill-opacity="1" fill-rule="nonzero"/></svg>